Coordinates
version=1
nRows=19
nColumns=24
inDegrees=yes

Units are S.I. units (second, meters, Newtons, ...)
Angles are in degrees.

endheader
time	pelvis_tilt	pelvis_list	pelvis_rotation	pelvis_tx	pelvis_ty	pelvis_tz	hip_flexion_r	hip_adduction_r	hip_rotation_r	knee_angle_r	ankle_angle_r	subtalar_angle_r	mtp_angle_r	hip_flexion_l	hip_adduction_l	hip_rotation_l	knee_angle_l	ankle_angle_l	subtalar_angle_l	mtp_angle_l	lumbar_extension	lumbar_bending	lumbar_rotation
      1.15000000	     -5.79187281	     -6.80754507	     -5.60972655	     -0.70845434	      1.26153873	     -0.87767968	     -7.64514488	     13.92947597	     25.50665221	     -9.07830744	      7.27407723	     -8.70025855	      6.71938818	     32.89425581	     -4.41786669	      1.52865966	     -8.70385135	     -6.35116562	    -19.08475130	      7.16199196	     -5.96471200	      8.38327432	      4.78240169
      1.15500000	     -5.75857456	     -7.01323403	     -4.68236318	     -0.70231728	      1.26064054	     -0.87934211	     -7.92624417	     14.12976578	     23.91517022	     -9.26220750	      7.43735406	     -7.67778561	      7.10521214	     33.17140615	     -3.90323487	      3.01226254	     -9.41199092	     -7.11454376	    -19.82903818	      7.00646821	     -5.81982486	      8.50708811	      3.81064450
      1.16000000	     -5.70139403	     -7.15244630	     -3.72316191	     -0.69603436	      1.25982740	     -0.88095419	     -8.23062938	     14.26800938	     22.27934361	     -9.43450554	      7.59437663	     -6.70780640	      7.55536473	     33.37647638	     -3.30527741	      4.41478571	    -10.11072489	     -7.95441720	    -20.51793217	      6.73734759	     -5.66052059	      8.53254055	      2.79166644
      1.16500000	     -5.63609420	     -7.29388945	     -2.75090933	     -0.68973159	      1.25908706	     -0.88255358	     -8.51182724	     14.42544722	     20.64447342	     -9.65037710	      7.66454661	     -5.73514904	      8.04656538	     33.55317300	     -2.69950538	      5.83558223	    -10.83425653	     -8.81636227	    -21.17805052	      6.39976764	     -5.50561826	      8.54625663	      1.75479366
      1.17000000	     -5.55779800	     -7.41705321	     -1.75989396	     -0.68338385	      1.25843392	     -0.88413228	     -8.77403162	     14.57831860	     18.97985477	     -9.90735361	      7.67176910	     -4.75033504	      8.58207625	     33.68576656	     -2.06661541	      7.24865390	    -11.55607499	     -9.71268202	    -21.81583491	      6.01680691	     -5.35290233	      8.52461995	      0.70329980
      1.17500000	     -5.46748365	     -7.52114674	     -0.74791314	     -0.67699240	      1.25786746	     -0.88569744	     -9.01649942	     14.72413748	     17.29219368	    -10.20314100	      7.61679937	     -3.76217428	      9.16195954	     33.77789311	     -1.40685491	      8.65520226	    -12.27699993	    -10.62388677	    -22.41759623	      5.59216902	     -5.20153462	      8.46938736	     -0.36895070
      1.18000000	     -5.37518283	     -7.60403851	      0.27164437	     -0.67056842	      1.25740961	     -0.88722358	     -9.21273295	     14.86257950	     15.57497595	    -10.56807069	      7.49961594	     -2.75882335	      9.78135560	     33.82832799	     -0.72988739	     10.04414947	    -12.97287897	    -11.53920147	    -22.98128640	      5.13805726	     -5.04560119	      8.37684650	     -1.45216096
      1.18500000	     -5.28343141	     -7.66990480	      1.30140824	     -0.66411073	      1.25705658	     -0.88871610	     -9.36685803	     14.99345895	     13.83288832	    -10.98326026	      7.29543128	     -1.75642681	     10.43409369	     33.84815445	     -0.03988180	     11.41386579	    -13.65842094	    -12.41004849	    -23.47606251	      4.69162733	     -4.88580050	      8.24954451	     -2.53646250
      1.19000000	     -5.17040575	     -7.73965645	      2.33547036	     -0.65769095	      1.25681918	     -0.89020045	     -9.47653663	     15.13700187	     12.08350185	    -11.49047399	      6.99708778	     -0.74112173	     11.10468751	     33.82138367	      0.64016359	     12.78556587	    -14.33983819	    -13.19510415	    -23.90812843	      4.25632990	     -4.76350160	      8.12617632	     -3.64473353
      1.19500000	     -5.09155353	     -7.75566525	      3.37742309	     -0.65115508	      1.25669186	     -0.89160948	     -9.51732047	     15.22601789	     10.27585386	    -12.03934783	      6.65358487	      0.27683723	     11.83653730	     33.77551923	      1.35977516	     14.09486486	    -14.97437225	    -13.98357776	    -24.26306944	      3.80581241	     -4.57984301	      7.91444900	     -4.73523518
      1.20000000	     -4.98895386	     -7.78436592	      4.42024916	     -0.64468506	      1.25667357	     -0.89301299	     -9.51459352	     15.32842090	      8.46398401	    -12.67824232	      6.20014780	      1.29146233	     12.55694016	     33.69170406	      2.05739297	     15.39616238	    -15.62288417	    -14.62177949	    -24.53434218	      3.39187652	     -4.44332142	      7.72484564	     -5.83908899
      1.20500000	     -4.90617127	     -7.79125003	      5.46307032	     -0.63816139	      1.25676669	     -0.89435162	     -9.43933535	     15.40016512	      6.59798933	    -13.38376172	      5.66995717	      2.33165890	     13.31090473	     33.58428524	      2.75852632	     16.66176684	    -16.23815094	    -15.20132089	    -24.73144009	      2.98469248	     -4.28425586	      7.48404908	     -6.94006370
      1.21000000	     -4.81961118	     -7.80302317	      6.49783712	     -0.63167036	      1.25694914	     -0.89568506	     -9.29181301	     15.46194139	      4.69996435	    -14.19629032	      5.03149720	      3.37868307	     14.01858915	     33.44865430	      3.44067555	     17.91103021	    -16.85071751	    -15.59317874	    -24.85828932	      2.63259092	     -4.14029523	      7.25341298	     -8.02505884
      1.21500000	     -4.74313938	     -7.80591171	      7.52423020	     -0.62518726	      1.25723138	     -0.89697393	     -9.07093356	     15.49311633	      2.77468537	    -15.09289093	      4.30358823	      4.43877723	     14.71778544	     33.29522832	      4.11017859	     19.10424868	    -17.44598064	    -15.91692054	    -24.92031905	      2.30109760	     -3.99695045	      7.00908285	     -9.11582952
      1.22000000	     -4.69156193	     -7.79508741	      8.52787652	     -0.61870261	      1.25761997	     -0.89822888	     -8.75262342	     15.47485515	      0.81960010	    -16.09364706	      3.47511224	      5.52987402	     15.43475176	     33.10224081	      4.76057294	     20.28852472	    -17.95794109	    -16.16477572	    -24.91760155	      1.97212778	     -3.83787696	      6.74637999	    -10.20681893
      1.22500000	     -4.63661137	     -7.78765985	      9.52619470	     -0.61224939	      1.25805459	     -0.89947647	     -8.37516566	     15.42241570	     -1.19158019	    -17.18094259	      2.54572678	      6.61763711	     16.06808031	     32.89938456	      5.39494205	     21.41960997	    -18.49353282	    -16.24712672	    -24.86709870	      1.70098892	     -3.69256018	      6.49007706	    -11.26965487
      1.23000000	     -4.59982769	     -7.78352438	     10.50659104	     -0.60582114	      1.25852935	     -0.90070131	     -7.91597276	     15.32682093	     -3.23224706	    -18.35959906	      1.50967096	      7.67316006	     16.60534598	     32.70438918	      6.00858909	     22.48961696	    -19.03838557	    -16.19857705	    -24.78673140	      1.49231251	     -3.53979420	      6.23845001	    -12.32933526
      1.23500000	     -4.58741988	     -7.75630416	     11.45333746	     -0.59940881	      1.25907619	     -0.90189912	     -7.37575019	     15.14409072	     -5.30156676	    -19.63367055	      0.36756378	      8.75536275	     17.10704316	     32.45801546	      6.60216651	     23.55824604	    -19.47015846	    -16.12335677	    -24.65908098	      1.28486418	     -3.37277293	      5.96032701	    -13.34353622
      1.24000000	     -4.59865460	     -7.73507864	     12.38011275	     -0.59302887	      1.25962646	     -0.90308116	     -6.76766048	     14.90934910	     -7.38416831	    -20.97222903	     -0.87554128	      9.74651266	     17.50709221	     32.23617466	      7.17688761	     24.54559754	    -19.92675271	    -15.91777392	    -24.53555354	      1.12953288	     -3.19255240	      5.69249543	    -14.36287398
